# xmcd
#
# Track frame offsets:
#	150
#	13804
#	26723
#	42472
#	55406
#	81398
#	96035
#	114613
#	130177
#	147971
#	159131
#	176828
#	190748
#	204925
#	234053
#	259856
#	277604
#	306826
#	324950
#
# Disc length: 4613 seconds
#
# Revision: 0
# Processed by: cddbd v1.5.2PL0 Copyright (c) Steve Scherf et al.
# Submitted via: EasyCDDAExtractor 16.1.0.1
#
DISCID=fb120313
DTITLE=V/A - Even A Tree Can Shed Tears
DYEAR=1900
DGENRE=
TTITLE0=Kenji Endo - Curry Rice
TTITLE1=Kazuhiko Yamahira and The Sherman - Sotto Futari De
TTITLE2=Sachiko Kanenobu - Anata Kara Toku E
TTITLE3=Fluid - Rokudenashi
TTITLE4=Kazuhiko Kato - Arthur Hakase No Jinriki Hikouki
TTITLE5=Happy End - Natsu Nandesu
TTITLE6=Takashi Nishioka - Man-In No Ki
TTITLE7=Masato Minami - Yoru Wo Kugurinukeru Made
TTITLE8=Maki Asakawa - Konna Fu Ni Sugite Iku No Nara
TTITLE9=Fumio Nunoya - Mizu Tamari
TTITLE10=Haruomi Hosono - Boku Wa Chotto
TTITLE11=Takuro Yoshida - Aoi Natsu
TTITLE12=Akai Tori - Takeda No Komori Uta
TTITLE13=Gu - Marianne
TTITLE14=Tetsuo Saito - Ware Ware Wa
TTITLE15=Gypsy Blood - Sugishi Hi Wo Mitsumete
TTITLE16=Hachimitsu - Hei No Ue De
TTITLE17=Ryo Kagawa - Zeni No Koyoryoku Ni Tsuite
TTITLE18=The Dylan II - Otokorashiitte Wakarukai (I Shall Be Released)
EXTD=
EXTT0=
EXTT1=
EXTT2=
EXTT3=
EXTT4=
EXTT5=
EXTT6=
EXTT7=
EXTT8=
EXTT9=
EXTT10=
EXTT11=
EXTT12=
EXTT13=
EXTT14=
EXTT15=
EXTT16=
EXTT17=
EXTT18=
PLAYORDER=
